<mxfile host="Electron" modified="2024-08-10T14:44:20.613Z" agent="Mozilla/5.0 (X11; Linux x86_64) AppleWebKit/537.36 (KHTML, like Gecko) draw.io/24.2.5 Chrome/120.0.6099.109 Electron/28.1.0 Safari/537.36" etag="9xnHVVfOyhGD5gfGhXZc" version="24.2.5" type="device">
  <diagram name="Page-1" id="G8ZvJWXJsHYqm7BaVf0D">
    <mxGraphModel dx="1420" dy="821" grid="1" gridSize="10" guides="1" tooltips="1" connect="1" arrows="1" fold="1" page="1" pageScale="1" pageWidth="850" pageHeight="1100" math="0" shadow="0">
      <root>
        <mxCell id="qo41Qgb1Bq0OAtDylW5R-0" />
        <mxCell id="qo41Qgb1Bq0OAtDylW5R-1" parent="qo41Qgb1Bq0OAtDylW5R-0" />
        <mxCell id="7WxePV0q5ovhReNKkkbh-0" value="" style="rounded=0;whiteSpace=wrap;html=1;shadow=0;strokeColor=#6c8ebf;strokeWidth=1;fontFamily=Ubuntu;fontSize=16;fontStyle=0;fillColor=#dae8fc;" parent="qo41Qgb1Bq0OAtDylW5R-1" vertex="1">
          <mxGeometry x="160" y="160" width="910" height="40" as="geometry" />
        </mxCell>
        <mxCell id="7WxePV0q5ovhReNKkkbh-1" value="Stack" style="text;html=1;align=center;verticalAlign=middle;whiteSpace=wrap;rounded=0;fontFamily=Ubuntu;fontSize=16;fontStyle=0;" parent="qo41Qgb1Bq0OAtDylW5R-1" vertex="1">
          <mxGeometry x="80" y="160" width="80" height="40" as="geometry" />
        </mxCell>
        <mxCell id="7WxePV0q5ovhReNKkkbh-2" value="1" style="rounded=0;whiteSpace=wrap;html=1;shadow=0;strokeColor=#82b366;strokeWidth=1;fontFamily=Ubuntu;fontSize=16;fontStyle=0;fillColor=#d5e8d4;" parent="qo41Qgb1Bq0OAtDylW5R-1" vertex="1">
          <mxGeometry x="200" y="160" width="40" height="40" as="geometry" />
        </mxCell>
        <mxCell id="7WxePV0q5ovhReNKkkbh-3" value="2" style="rounded=0;whiteSpace=wrap;html=1;shadow=0;strokeColor=#82b366;strokeWidth=1;fontFamily=Ubuntu;fontSize=16;fontStyle=0;fillColor=#d5e8d4;" parent="qo41Qgb1Bq0OAtDylW5R-1" vertex="1">
          <mxGeometry x="240" y="160" width="40" height="40" as="geometry" />
        </mxCell>
        <mxCell id="7WxePV0q5ovhReNKkkbh-4" value="3" style="rounded=0;whiteSpace=wrap;html=1;shadow=0;strokeColor=#82b366;strokeWidth=1;fontFamily=Ubuntu;fontSize=16;fontStyle=0;fillColor=#d5e8d4;" parent="qo41Qgb1Bq0OAtDylW5R-1" vertex="1">
          <mxGeometry x="280" y="160" width="40" height="40" as="geometry" />
        </mxCell>
        <mxCell id="7WxePV0q5ovhReNKkkbh-5" value="4" style="rounded=0;whiteSpace=wrap;html=1;shadow=0;strokeColor=#82b366;strokeWidth=1;fontFamily=Ubuntu;fontSize=16;fontStyle=0;fillColor=#d5e8d4;" parent="qo41Qgb1Bq0OAtDylW5R-1" vertex="1">
          <mxGeometry x="320" y="160" width="40" height="40" as="geometry" />
        </mxCell>
        <mxCell id="7WxePV0q5ovhReNKkkbh-6" value="5" style="rounded=0;whiteSpace=wrap;html=1;shadow=0;strokeColor=#82b366;strokeWidth=1;fontFamily=Ubuntu;fontSize=16;fontStyle=0;fillColor=#d5e8d4;" parent="qo41Qgb1Bq0OAtDylW5R-1" vertex="1">
          <mxGeometry x="360" y="160" width="40" height="40" as="geometry" />
        </mxCell>
        <mxCell id="7WxePV0q5ovhReNKkkbh-7" value="numbers" style="endArrow=baseDash;startArrow=baseDash;html=1;rounded=1;shadow=0;strokeColor=#6c8ebf;strokeWidth=1;fontFamily=Ubuntu;fontSize=14;fontStyle=0;fillColor=#dae8fc;endFill=0;startFill=0;" parent="qo41Qgb1Bq0OAtDylW5R-1" edge="1">
          <mxGeometry width="50" height="50" relative="1" as="geometry">
            <mxPoint x="200" y="139.5" as="sourcePoint" />
            <mxPoint x="400" y="139.5" as="targetPoint" />
          </mxGeometry>
        </mxCell>
        <mxCell id="7WxePV0q5ovhReNKkkbh-10" style="edgeStyle=orthogonalEdgeStyle;rounded=1;orthogonalLoop=1;jettySize=auto;html=1;entryX=0.75;entryY=1;entryDx=0;entryDy=0;shadow=0;strokeColor=#6c8ebf;strokeWidth=1;fontFamily=Ubuntu;fontSize=14;fontStyle=0;endArrow=block;endFill=1;fillColor=#dae8fc;" parent="qo41Qgb1Bq0OAtDylW5R-1" source="7WxePV0q5ovhReNKkkbh-8" target="7WxePV0q5ovhReNKkkbh-2" edge="1">
          <mxGeometry relative="1" as="geometry">
            <Array as="points">
              <mxPoint x="480" y="220" />
              <mxPoint x="230" y="220" />
            </Array>
          </mxGeometry>
        </mxCell>
        <mxCell id="7WxePV0q5ovhReNKkkbh-8" value="ptr" style="rounded=0;whiteSpace=wrap;html=1;shadow=0;strokeColor=#b85450;strokeWidth=1;fontFamily=Ubuntu;fontSize=16;fontStyle=0;fillColor=#f8cecc;" parent="qo41Qgb1Bq0OAtDylW5R-1" vertex="1">
          <mxGeometry x="440" y="160" width="80" height="40" as="geometry" />
        </mxCell>
        <mxCell id="7WxePV0q5ovhReNKkkbh-9" value="num_ptr" style="text;html=1;align=center;verticalAlign=middle;whiteSpace=wrap;rounded=0;fontFamily=Ubuntu;fontSize=16;fontStyle=0;" parent="qo41Qgb1Bq0OAtDylW5R-1" vertex="1">
          <mxGeometry x="440" y="120" width="80" height="40" as="geometry" />
        </mxCell>
        <mxCell id="7WxePV0q5ovhReNKkkbh-14" style="edgeStyle=orthogonalEdgeStyle;rounded=1;orthogonalLoop=1;jettySize=auto;html=1;entryX=0.5;entryY=1;entryDx=0;entryDy=0;shadow=0;strokeColor=#6c8ebf;strokeWidth=1;fontFamily=Ubuntu;fontSize=14;fontStyle=0;endArrow=block;endFill=1;fillColor=#dae8fc;" parent="qo41Qgb1Bq0OAtDylW5R-1" source="7WxePV0q5ovhReNKkkbh-11" target="7WxePV0q5ovhReNKkkbh-2" edge="1">
          <mxGeometry relative="1" as="geometry">
            <Array as="points">
              <mxPoint x="600" y="230" />
              <mxPoint x="220" y="230" />
            </Array>
          </mxGeometry>
        </mxCell>
        <mxCell id="7WxePV0q5ovhReNKkkbh-11" value="ptr" style="rounded=0;whiteSpace=wrap;html=1;shadow=0;strokeColor=#b85450;strokeWidth=1;fontFamily=Ubuntu;fontSize=16;fontStyle=0;fillColor=#f8cecc;" parent="qo41Qgb1Bq0OAtDylW5R-1" vertex="1">
          <mxGeometry x="560" y="160" width="80" height="40" as="geometry" />
        </mxCell>
        <mxCell id="7WxePV0q5ovhReNKkkbh-12" value="5" style="rounded=0;whiteSpace=wrap;html=1;shadow=0;strokeColor=#82b366;strokeWidth=1;fontFamily=Ubuntu;fontSize=16;fontStyle=0;fillColor=#d5e8d4;" parent="qo41Qgb1Bq0OAtDylW5R-1" vertex="1">
          <mxGeometry x="640" y="160" width="80" height="40" as="geometry" />
        </mxCell>
        <mxCell id="7WxePV0q5ovhReNKkkbh-13" value="num_ptr_slice&amp;nbsp;" style="endArrow=baseDash;startArrow=baseDash;html=1;rounded=1;shadow=0;strokeColor=#6c8ebf;strokeWidth=1;fontFamily=Ubuntu;fontSize=14;fontStyle=0;fillColor=#dae8fc;startFill=0;endFill=0;" parent="qo41Qgb1Bq0OAtDylW5R-1" edge="1">
          <mxGeometry width="50" height="50" relative="1" as="geometry">
            <mxPoint x="560" y="139.5" as="sourcePoint" />
            <mxPoint x="720" y="140" as="targetPoint" />
          </mxGeometry>
        </mxCell>
        <mxCell id="7WxePV0q5ovhReNKkkbh-18" style="edgeStyle=orthogonalEdgeStyle;rounded=1;orthogonalLoop=1;jettySize=auto;html=1;entryX=0.25;entryY=1;entryDx=0;entryDy=0;shadow=0;strokeColor=#6c8ebf;strokeWidth=1;fontFamily=Ubuntu;fontSize=14;fontStyle=0;endArrow=block;endFill=1;fillColor=#dae8fc;" parent="qo41Qgb1Bq0OAtDylW5R-1" source="7WxePV0q5ovhReNKkkbh-15" target="7WxePV0q5ovhReNKkkbh-2" edge="1">
          <mxGeometry relative="1" as="geometry">
            <Array as="points">
              <mxPoint x="800" y="240" />
              <mxPoint x="210" y="240" />
            </Array>
          </mxGeometry>
        </mxCell>
        <mxCell id="7WxePV0q5ovhReNKkkbh-15" value="ptr" style="rounded=0;whiteSpace=wrap;html=1;shadow=0;strokeColor=#b85450;strokeWidth=1;fontFamily=Ubuntu;fontSize=16;fontStyle=0;fillColor=#f8cecc;" parent="qo41Qgb1Bq0OAtDylW5R-1" vertex="1">
          <mxGeometry x="760" y="160" width="80" height="40" as="geometry" />
        </mxCell>
        <mxCell id="7WxePV0q5ovhReNKkkbh-16" value="5" style="rounded=0;whiteSpace=wrap;html=1;shadow=0;strokeColor=#82b366;strokeWidth=1;fontFamily=Ubuntu;fontSize=16;fontStyle=0;fillColor=#d5e8d4;" parent="qo41Qgb1Bq0OAtDylW5R-1" vertex="1">
          <mxGeometry x="840" y="160" width="80" height="40" as="geometry" />
        </mxCell>
        <mxCell id="7WxePV0q5ovhReNKkkbh-17" value="num_slice&amp;nbsp;" style="endArrow=baseDash;startArrow=baseDash;html=1;rounded=1;shadow=0;strokeColor=#6c8ebf;strokeWidth=1;fontFamily=Ubuntu;fontSize=14;fontStyle=0;fillColor=#dae8fc;endFill=0;startFill=0;" parent="qo41Qgb1Bq0OAtDylW5R-1" edge="1">
          <mxGeometry width="50" height="50" relative="1" as="geometry">
            <mxPoint x="760" y="139.5" as="sourcePoint" />
            <mxPoint x="920" y="140" as="targetPoint" />
          </mxGeometry>
        </mxCell>
        <mxCell id="RxlMfxT0kxSEWkr64Ml9-2" style="edgeStyle=orthogonalEdgeStyle;rounded=1;orthogonalLoop=1;jettySize=auto;html=1;entryX=0;entryY=1;entryDx=0;entryDy=0;shadow=0;strokeColor=#6c8ebf;strokeWidth=1;fontFamily=Ubuntu;fontSize=14;fontStyle=0;endArrow=block;endFill=1;fillColor=#dae8fc;" edge="1" parent="qo41Qgb1Bq0OAtDylW5R-1" source="RxlMfxT0kxSEWkr64Ml9-0" target="7WxePV0q5ovhReNKkkbh-2">
          <mxGeometry relative="1" as="geometry">
            <Array as="points">
              <mxPoint x="1000" y="250" />
              <mxPoint x="200" y="250" />
            </Array>
          </mxGeometry>
        </mxCell>
        <mxCell id="RxlMfxT0kxSEWkr64Ml9-0" value="ptr" style="rounded=0;whiteSpace=wrap;html=1;shadow=0;strokeColor=#b85450;strokeWidth=1;fontFamily=Ubuntu;fontSize=16;fontStyle=0;fillColor=#f8cecc;" vertex="1" parent="qo41Qgb1Bq0OAtDylW5R-1">
          <mxGeometry x="960" y="160" width="80" height="40" as="geometry" />
        </mxCell>
        <mxCell id="RxlMfxT0kxSEWkr64Ml9-1" value="num_first_ptr" style="text;html=1;align=center;verticalAlign=middle;whiteSpace=wrap;rounded=0;fontFamily=Ubuntu;fontSize=16;fontStyle=0;" vertex="1" parent="qo41Qgb1Bq0OAtDylW5R-1">
          <mxGeometry x="950" y="120" width="120" height="40" as="geometry" />
        </mxCell>
        <mxCell id="RxlMfxT0kxSEWkr64Ml9-3" value="" style="rounded=0;whiteSpace=wrap;html=1;shadow=0;strokeColor=#6c8ebf;strokeWidth=1;fontFamily=Ubuntu;fontSize=16;fontStyle=0;fillColor=#dae8fc;" vertex="1" parent="qo41Qgb1Bq0OAtDylW5R-1">
          <mxGeometry x="160" y="360" width="910" height="40" as="geometry" />
        </mxCell>
        <mxCell id="RxlMfxT0kxSEWkr64Ml9-4" value="Stack" style="text;html=1;align=center;verticalAlign=middle;whiteSpace=wrap;rounded=0;fontFamily=Ubuntu;fontSize=16;fontStyle=0;" vertex="1" parent="qo41Qgb1Bq0OAtDylW5R-1">
          <mxGeometry x="80" y="360" width="80" height="40" as="geometry" />
        </mxCell>
        <mxCell id="RxlMfxT0kxSEWkr64Ml9-5" value="2" style="rounded=0;whiteSpace=wrap;html=1;shadow=0;strokeColor=#82b366;strokeWidth=1;fontFamily=Ubuntu;fontSize=16;fontStyle=0;fillColor=#d5e8d4;" vertex="1" parent="qo41Qgb1Bq0OAtDylW5R-1">
          <mxGeometry x="200" y="360" width="40" height="40" as="geometry" />
        </mxCell>
        <mxCell id="RxlMfxT0kxSEWkr64Ml9-6" value="4" style="rounded=0;whiteSpace=wrap;html=1;shadow=0;strokeColor=#82b366;strokeWidth=1;fontFamily=Ubuntu;fontSize=16;fontStyle=0;fillColor=#d5e8d4;" vertex="1" parent="qo41Qgb1Bq0OAtDylW5R-1">
          <mxGeometry x="240" y="360" width="40" height="40" as="geometry" />
        </mxCell>
        <mxCell id="RxlMfxT0kxSEWkr64Ml9-7" value="6" style="rounded=0;whiteSpace=wrap;html=1;shadow=0;strokeColor=#82b366;strokeWidth=1;fontFamily=Ubuntu;fontSize=16;fontStyle=0;fillColor=#d5e8d4;" vertex="1" parent="qo41Qgb1Bq0OAtDylW5R-1">
          <mxGeometry x="280" y="360" width="40" height="40" as="geometry" />
        </mxCell>
        <mxCell id="RxlMfxT0kxSEWkr64Ml9-8" value="8" style="rounded=0;whiteSpace=wrap;html=1;shadow=0;strokeColor=#82b366;strokeWidth=1;fontFamily=Ubuntu;fontSize=16;fontStyle=0;fillColor=#d5e8d4;" vertex="1" parent="qo41Qgb1Bq0OAtDylW5R-1">
          <mxGeometry x="320" y="360" width="40" height="40" as="geometry" />
        </mxCell>
        <mxCell id="RxlMfxT0kxSEWkr64Ml9-9" value="10" style="rounded=0;whiteSpace=wrap;html=1;shadow=0;strokeColor=#82b366;strokeWidth=1;fontFamily=Ubuntu;fontSize=16;fontStyle=0;fillColor=#d5e8d4;" vertex="1" parent="qo41Qgb1Bq0OAtDylW5R-1">
          <mxGeometry x="360" y="360" width="40" height="40" as="geometry" />
        </mxCell>
        <mxCell id="RxlMfxT0kxSEWkr64Ml9-10" value="numbers" style="endArrow=baseDash;startArrow=baseDash;html=1;rounded=1;shadow=0;strokeColor=#6c8ebf;strokeWidth=1;fontFamily=Ubuntu;fontSize=14;fontStyle=0;fillColor=#dae8fc;endFill=0;startFill=0;" edge="1" parent="qo41Qgb1Bq0OAtDylW5R-1">
          <mxGeometry width="50" height="50" relative="1" as="geometry">
            <mxPoint x="200" y="339.5" as="sourcePoint" />
            <mxPoint x="400" y="339.5" as="targetPoint" />
          </mxGeometry>
        </mxCell>
        <mxCell id="RxlMfxT0kxSEWkr64Ml9-11" style="edgeStyle=orthogonalEdgeStyle;rounded=1;orthogonalLoop=1;jettySize=auto;html=1;entryX=0.75;entryY=1;entryDx=0;entryDy=0;shadow=0;strokeColor=#6c8ebf;strokeWidth=1;fontFamily=Ubuntu;fontSize=14;fontStyle=0;endArrow=block;endFill=1;fillColor=#dae8fc;" edge="1" source="RxlMfxT0kxSEWkr64Ml9-12" target="RxlMfxT0kxSEWkr64Ml9-5" parent="qo41Qgb1Bq0OAtDylW5R-1">
          <mxGeometry relative="1" as="geometry">
            <Array as="points">
              <mxPoint x="480" y="420" />
              <mxPoint x="230" y="420" />
            </Array>
          </mxGeometry>
        </mxCell>
        <mxCell id="RxlMfxT0kxSEWkr64Ml9-12" value="ptr" style="rounded=0;whiteSpace=wrap;html=1;shadow=0;strokeColor=#b85450;strokeWidth=1;fontFamily=Ubuntu;fontSize=16;fontStyle=0;fillColor=#f8cecc;" vertex="1" parent="qo41Qgb1Bq0OAtDylW5R-1">
          <mxGeometry x="440" y="360" width="80" height="40" as="geometry" />
        </mxCell>
        <mxCell id="RxlMfxT0kxSEWkr64Ml9-13" value="num_ptr" style="text;html=1;align=center;verticalAlign=middle;whiteSpace=wrap;rounded=0;fontFamily=Ubuntu;fontSize=16;fontStyle=0;" vertex="1" parent="qo41Qgb1Bq0OAtDylW5R-1">
          <mxGeometry x="440" y="320" width="80" height="40" as="geometry" />
        </mxCell>
        <mxCell id="RxlMfxT0kxSEWkr64Ml9-14" style="edgeStyle=orthogonalEdgeStyle;rounded=1;orthogonalLoop=1;jettySize=auto;html=1;entryX=0.5;entryY=1;entryDx=0;entryDy=0;shadow=0;strokeColor=#6c8ebf;strokeWidth=1;fontFamily=Ubuntu;fontSize=14;fontStyle=0;endArrow=block;endFill=1;fillColor=#dae8fc;" edge="1" source="RxlMfxT0kxSEWkr64Ml9-15" target="RxlMfxT0kxSEWkr64Ml9-5" parent="qo41Qgb1Bq0OAtDylW5R-1">
          <mxGeometry relative="1" as="geometry">
            <Array as="points">
              <mxPoint x="600" y="430" />
              <mxPoint x="220" y="430" />
            </Array>
          </mxGeometry>
        </mxCell>
        <mxCell id="RxlMfxT0kxSEWkr64Ml9-15" value="ptr" style="rounded=0;whiteSpace=wrap;html=1;shadow=0;strokeColor=#b85450;strokeWidth=1;fontFamily=Ubuntu;fontSize=16;fontStyle=0;fillColor=#f8cecc;" vertex="1" parent="qo41Qgb1Bq0OAtDylW5R-1">
          <mxGeometry x="560" y="360" width="80" height="40" as="geometry" />
        </mxCell>
        <mxCell id="RxlMfxT0kxSEWkr64Ml9-16" value="5" style="rounded=0;whiteSpace=wrap;html=1;shadow=0;strokeColor=#82b366;strokeWidth=1;fontFamily=Ubuntu;fontSize=16;fontStyle=0;fillColor=#d5e8d4;" vertex="1" parent="qo41Qgb1Bq0OAtDylW5R-1">
          <mxGeometry x="640" y="360" width="80" height="40" as="geometry" />
        </mxCell>
        <mxCell id="RxlMfxT0kxSEWkr64Ml9-17" value="num_ptr_slice&amp;nbsp;" style="endArrow=baseDash;startArrow=baseDash;html=1;rounded=1;shadow=0;strokeColor=#6c8ebf;strokeWidth=1;fontFamily=Ubuntu;fontSize=14;fontStyle=0;fillColor=#dae8fc;startFill=0;endFill=0;" edge="1" parent="qo41Qgb1Bq0OAtDylW5R-1">
          <mxGeometry width="50" height="50" relative="1" as="geometry">
            <mxPoint x="560" y="339.5" as="sourcePoint" />
            <mxPoint x="720" y="340" as="targetPoint" />
          </mxGeometry>
        </mxCell>
        <mxCell id="RxlMfxT0kxSEWkr64Ml9-18" style="edgeStyle=orthogonalEdgeStyle;rounded=1;orthogonalLoop=1;jettySize=auto;html=1;entryX=0.25;entryY=1;entryDx=0;entryDy=0;shadow=0;strokeColor=#6c8ebf;strokeWidth=1;fontFamily=Ubuntu;fontSize=14;fontStyle=0;endArrow=block;endFill=1;fillColor=#dae8fc;" edge="1" source="RxlMfxT0kxSEWkr64Ml9-19" target="RxlMfxT0kxSEWkr64Ml9-5" parent="qo41Qgb1Bq0OAtDylW5R-1">
          <mxGeometry relative="1" as="geometry">
            <Array as="points">
              <mxPoint x="800" y="440" />
              <mxPoint x="210" y="440" />
            </Array>
          </mxGeometry>
        </mxCell>
        <mxCell id="RxlMfxT0kxSEWkr64Ml9-19" value="ptr" style="rounded=0;whiteSpace=wrap;html=1;shadow=0;strokeColor=#b85450;strokeWidth=1;fontFamily=Ubuntu;fontSize=16;fontStyle=0;fillColor=#f8cecc;" vertex="1" parent="qo41Qgb1Bq0OAtDylW5R-1">
          <mxGeometry x="760" y="360" width="80" height="40" as="geometry" />
        </mxCell>
        <mxCell id="RxlMfxT0kxSEWkr64Ml9-20" value="5" style="rounded=0;whiteSpace=wrap;html=1;shadow=0;strokeColor=#82b366;strokeWidth=1;fontFamily=Ubuntu;fontSize=16;fontStyle=0;fillColor=#d5e8d4;" vertex="1" parent="qo41Qgb1Bq0OAtDylW5R-1">
          <mxGeometry x="840" y="360" width="80" height="40" as="geometry" />
        </mxCell>
        <mxCell id="RxlMfxT0kxSEWkr64Ml9-21" value="num_slice&amp;nbsp;" style="endArrow=baseDash;startArrow=baseDash;html=1;rounded=1;shadow=0;strokeColor=#6c8ebf;strokeWidth=1;fontFamily=Ubuntu;fontSize=14;fontStyle=0;fillColor=#dae8fc;endFill=0;startFill=0;" edge="1" parent="qo41Qgb1Bq0OAtDylW5R-1">
          <mxGeometry width="50" height="50" relative="1" as="geometry">
            <mxPoint x="760" y="339.5" as="sourcePoint" />
            <mxPoint x="920" y="340" as="targetPoint" />
          </mxGeometry>
        </mxCell>
        <mxCell id="RxlMfxT0kxSEWkr64Ml9-22" style="edgeStyle=orthogonalEdgeStyle;rounded=1;orthogonalLoop=1;jettySize=auto;html=1;entryX=0;entryY=1;entryDx=0;entryDy=0;shadow=0;strokeColor=#6c8ebf;strokeWidth=1;fontFamily=Ubuntu;fontSize=14;fontStyle=0;endArrow=block;endFill=1;fillColor=#dae8fc;" edge="1" source="RxlMfxT0kxSEWkr64Ml9-23" target="RxlMfxT0kxSEWkr64Ml9-5" parent="qo41Qgb1Bq0OAtDylW5R-1">
          <mxGeometry relative="1" as="geometry">
            <Array as="points">
              <mxPoint x="1000" y="450" />
              <mxPoint x="200" y="450" />
            </Array>
          </mxGeometry>
        </mxCell>
        <mxCell id="RxlMfxT0kxSEWkr64Ml9-23" value="ptr" style="rounded=0;whiteSpace=wrap;html=1;shadow=0;strokeColor=#b85450;strokeWidth=1;fontFamily=Ubuntu;fontSize=16;fontStyle=0;fillColor=#f8cecc;" vertex="1" parent="qo41Qgb1Bq0OAtDylW5R-1">
          <mxGeometry x="960" y="360" width="80" height="40" as="geometry" />
        </mxCell>
        <mxCell id="RxlMfxT0kxSEWkr64Ml9-24" value="num_first_ptr" style="text;html=1;align=center;verticalAlign=middle;whiteSpace=wrap;rounded=0;fontFamily=Ubuntu;fontSize=16;fontStyle=0;" vertex="1" parent="qo41Qgb1Bq0OAtDylW5R-1">
          <mxGeometry x="950" y="320" width="120" height="40" as="geometry" />
        </mxCell>
        <mxCell id="RxlMfxT0kxSEWkr64Ml9-25" value="" style="endArrow=classic;html=1;rounded=1;shadow=0;strokeColor=#6c8ebf;strokeWidth=3;fontFamily=Ubuntu;fontSize=14;fontStyle=0;fillColor=#dae8fc;" edge="1" parent="qo41Qgb1Bq0OAtDylW5R-1">
          <mxGeometry width="50" height="50" relative="1" as="geometry">
            <mxPoint x="600" y="260" as="sourcePoint" />
            <mxPoint x="600" y="320" as="targetPoint" />
          </mxGeometry>
        </mxCell>
      </root>
    </mxGraphModel>
  </diagram>
</mxfile>
